<?xml version="1.0" standalone="no"?><!DOCTYPE svg PUBLIC "-//W3C//DTD SVG 1.1//EN" "http://www.w3.org/Graphics/SVG/1.1/DTD/svg11.dtd"><svg t="1670057556743" class="icon" viewBox="0 0 1024 1024" version="1.1" xmlns="http://www.w3.org/2000/svg" p-id="1613" xmlns:xlink="http://www.w3.org/1999/xlink" width="200" height="200"><path d="M195.54148926 466.98458917m-34.65910466 0a34.65910465 34.65910465 0 1 0 69.31820932 0 34.65910465 34.65910465 0 1 0-69.31820932 0Z" fill="#F7554A" p-id="1614"></path><path d="M195.54148926 432.32548451c19.19368743 0 34.65910465 15.46541722 34.65910466 34.65910466 0 19.19368743-15.46541722 34.65910465-34.65910466 34.65910466s-34.65910465-15.46541722-34.65910466-34.65910466c0-19.05560336 15.46541722-34.65910465 34.65910466-34.65910466m0-31.89742302c-36.7303659 0-66.69461175 29.82616178-66.69461177 66.69461176 0 36.7303659 29.82616178 66.69461175 66.69461177 66.69461175 36.7303659 0 66.69461175-29.82616178 66.69461174-66.69461175-0.13808409-36.86844997-29.96424587-66.69461175-66.69461174-66.69461176z" fill="#4C466D" p-id="1615"></path><path d="M499.74072257 543.2070026m-278.79176218 0a278.79176217 278.79176217 0 1 0 557.58352436 0 278.79176217 278.79176217 0 1 0-557.58352436 0Z" fill="#49DAF2" p-id="1616"></path><path d="M499.74072257 264.41524043c153.96375177 0 278.79176217 124.8280104 278.79176218 278.79176217s-124.8280104 278.79176217-278.79176218 278.79176217-278.79176217-124.8280104-278.79176218-278.79176217 124.96609449-278.79176217 278.79176218-278.79176217m0-31.89742301c-171.36234613 0-310.68918518 139.46492313-310.68918518 310.68918518s139.46492313 310.68918518 310.68918518 310.68918519c171.36234613 0 310.68918518-139.46492313 310.6891852-310.68918519s-139.32683905-310.68918518-310.6891852-310.68918518z" fill="#4C466D" p-id="1617"></path><path d="M499.74072257 543.2070026m-228.11490396 0a228.11490397 228.11490397 0 1 0 456.22980793 0 228.11490397 228.11490397 0 1 0-456.22980793 0Z" fill="#38C9F1" p-id="1618"></path><path d="M499.74072257 543.2070026m-171.63851429 0a171.63851431 171.63851431 0 1 0 343.27702861 0 171.63851431 171.63851431 0 1 0-343.27702861 0Z" fill="#49BCEA" p-id="1619"></path><path d="M887.89507793 233.89865824c0.8285045 19.33177153-22.09345317 111.57193851-58.82381906 113.09086339 36.86844997-1.51892491 66.97077991 82.43619714 68.07545256 107.84366829-1.10467265-25.40747114 24.85513482-111.71002258 58.82381908-113.0908634-33.96868425 1.38084082-67.108864-85.19787878-68.07545258-107.84366828z" fill="#FFFFFF" p-id="1620"></path><path d="M897.14671143 470.85094347c-8.5612131 0-15.6035013-6.76612003-16.01775353-15.32733313-0.41425225-9.3897176-7.18037229-34.52102059-18.91751929-57.30489416-13.53224006-26.37405971-26.23597565-35.48760915-32.58784341-35.07335692-9.11354943 0.27616816-16.29392172-6.48995186-16.70817396-15.32733313v-0.6904204c0-8.5612131 6.76612003-15.6035013 15.32733314-16.01775355 20.2983601-0.8285045 44.32499042-76.77474976 43.49648592-96.38268945-0.41425225-8.83738127 6.48995186-16.29392172 15.32733314-16.70817396 8.97546534-0.41425225 16.29392172 6.48995186 16.70817396 15.32733315 1.10467265 24.71705073 33.554432 92.37825106 51.09111045 92.37825106h0.27616817c8.69929718-0.41425225 16.29392172 6.48995186 16.70817395 15.32733312v0.69042042c0 8.5612131-6.76612003 15.6035013-15.32733314 16.01775354-18.08901478 0.69042042-44.60115858 70.97521831-43.49648592 96.38268945v0.69042041c0 8.5612131-6.76612003 15.6035013-15.32733314 16.01775355h-0.55233634z m-34.2448524-125.79459897c9.94205392 8.83738127 19.19368743 21.67920092 27.75490054 38.38737487 1.38084082 2.76168163 2.89976573 5.66144737 4.28060656 8.6992972 6.90420412-18.36518295 16.29392172-36.5922818 28.0310687-49.43410148-12.97990373-12.15139925-24.02663031-30.10232993-32.44975933-48.19134472-6.62803595 18.64135111-15.74158539 37.42078631-27.61681647 50.53877413z" fill="#4C466D" p-id="1621"></path><path d="M765.96683326 154.08605867c-0.13808409 13.9464923-19.88410785 79.67451549-46.39625165 79.53643141 26.65022788 0.13808409 45.42966308 61.86166887 45.29157899 80.08876772 0.13808409-18.36518295 21.817285-79.67451549 46.39625165-79.5364314-24.57896666-0.13808409-45.42966308-63.79484603-45.29157899-80.08876773z" fill="#FFFFFF" p-id="1622"></path><path d="M764.8621606 329.72901136c-0.13808409 0-0.13808409 0 0 0-8.83738127 0-16.01775355-7.18037229-16.01775354-16.01775356v-0.13808407c0-6.2137837-3.86635431-24.02663031-11.18481067-40.18246795-8.14696086-17.9509307-15.74158539-23.88854624-18.22709888-23.88854624-8.83738127 0-15.87966947-7.18037229-15.87966946-16.01775356v-0.13808406c0-8.83738127 7.18037229-15.87966947 16.01775356-15.87966947h0.13808408c10.35630617 0 30.10232993-48.19134474 30.3784981-63.65676194 0.13808409-8.69929718 7.31845635-15.87966947 16.01775354-15.87966948h0.13808409c8.83738127 0.13808409 15.87966947 7.18037229 15.87966946 16.01775355-0.13808409 14.49882864 18.7794352 61.30933253 29.54999362 64.07101419 0.41425225 0 0.8285045 0 1.24275674 0.13808409 8.28504494 0.69042042 14.63691274 7.59462453 14.49882864 16.01775354 0 8.83738127-7.31845635 15.87966947-16.15583763 15.87966946h-0.13808409c-10.21822208 1.79509307-30.24041403 46.67241982-30.37849809 63.65676194 0 8.97546534-7.18037229 16.01775355-15.87966947 16.01775356z m-14.63691273-96.10652128c5.10911105 5.79953147 10.35630617 13.67032415 15.32733313 24.16471439 4.41869063-8.83738127 9.80396985-17.12242621 15.87966947-23.88854623-6.07569962-7.04228819-11.18481067-15.74158539-15.46541721-24.85513483-4.41869063 8.97546534-9.52780169 17.53667845-15.74158539 24.57896667zM634.5107869 359.55517314c-3.0378498 0-6.2137837-0.8285045-8.97546535-2.76168165-17.26051028-11.59906291-35.9018614-20.85069643-55.50980109-27.20256423-8.42312903-2.76168163-12.97990373-11.737147-10.21822208-20.16027601s11.737147-12.97990373 20.160276-10.21822208c22.50770542 7.31845635 43.91073817 17.81284661 63.51867787 31.06891853 7.31845635 4.97102697 9.25163351 14.91308089 4.28060656 22.23153724-3.1759339 4.55677472-8.14696086 7.04228819-13.25607191 7.0422882zM270.7973141 633.79016059c-6.76612003 0-12.97990373-4.28060655-15.18924905-11.04672657-8.28504494-25.68363931-12.56565149-52.3338672-12.56565148-79.53643142 0-31.2070026 5.5233633-61.5855007 16.43200579-90.583158 8.14696086-21.54111683 19.19368743-41.97756103 32.72592751-60.61891213 5.24719513-7.18037229 15.18924905-8.69929718 22.36962133-3.45210205 7.18037229 5.24719513 8.69929718 15.18924905 3.45210206 22.36962133-11.87523108 16.29392172-21.54111683 34.24485242-28.72148912 53.02428761-9.52780169 25.26938706-14.36074457 51.91961495-14.36074455 79.26026324 0 23.75046215 3.72827022 47.22475615 11.04672658 69.59437749 2.76168163 8.42312903-1.79509307 17.39859437-10.2182221 20.16027601-1.65700898 0.69042042-3.31401797 0.8285045-4.97102697 0.82850449zM299.7949714 693.44248415c-5.10911105 0-10.21822208-2.48551348-13.2560719-7.0422882-3.59018613-5.3852792-7.04228819-10.77055842-10.08013801-16.29392171-4.41869063-7.7327086-1.65700898-17.39859437 5.93761554-21.817285 7.7327086-4.41869063 17.39859437-1.65700898 21.817285 5.93761553 2.76168163 4.83294288 5.66144737 9.66588576 8.83738127 14.36074456 4.97102697 7.31845635 3.0378498 17.26051028-4.28060655 22.23153725-2.76168163 1.79509307-5.79953147 2.62359757-8.97546535 2.62359757z" fill="#4C466D" p-id="1623"></path><path d="M406.80501365 683.80815889a44.18690634 44.18690634 0 1 0 17.07292443-86.70897294 44.18690634 44.18690634 0 1 0-17.07292443 86.70897294Z" fill="#D7F7FF" p-id="1624"></path><path d="M415.2332642 596.36937428c2.89976573 0 5.66144737 0.27616816 8.5612131 0.8285045 23.88854624 4.69485881 39.49204754 27.89298463 34.79718875 51.91961495-4.14252247 21.12686459-22.64578949 35.62569324-43.35840185 35.62569324-2.89976573 0-5.66144737-0.27616816-8.5612131-0.8285045-23.88854624-4.69485881-39.49204754-27.89298463-34.79718873-51.91961494 4.28060655-20.98878051 22.78387358-35.62569324 43.35840183-35.62569325m0-32.03550708c-36.31611363 0-67.66120033 25.8217234-74.70348853 61.44741662-8.14696086 41.2871406 18.7794352 81.33152447 60.06657581 89.47848533 4.83294288 0.96658859 9.80396985 1.38084082 14.77499681 1.38084082 36.31611363 0 67.66120033-25.8217234 74.70348852-61.44741663 8.14696086-41.2871406-18.7794352-81.33152447-60.06657581-89.47848533-4.83294288-0.8285045-9.80396985-1.38084082-14.7749968-1.38084081z" fill="#4C466D" p-id="1625"></path><path d="M460.13598462 462.86037665a15.46541722 15.46541722 0 1 0 5.97552374-30.34814032 15.46541722 15.46541722 0 1 0-5.97552374 30.34814032Z" fill="#D7F7FF" p-id="1626"></path><path d="M463.14844076 432.32548451c0.96658859 0 1.93317715 0.13808409 3.03784981 0.27616817 8.42312903 1.65700898 13.80840823 9.80396985 12.15139924 18.08901479-1.38084082 7.31845635-7.87079269 12.42756741-15.05116498 12.42756739-0.96658859 0-1.93317715-0.13808409-3.0378498-0.27616816-8.42312903-1.65700898-13.80840823-9.80396985-12.15139924-18.08901479 1.38084082-7.31845635 7.7327086-12.42756741 15.05116497-12.4275674m0-31.89742302c-22.64578949 0-42.1156451 16.15583763-46.53433573 38.24929081-5.10911105 25.68363931 11.737147 50.67685821 37.42078629 55.64788517 3.0378498 0.55233633 6.07569962 0.8285045 9.11354944 0.82850449 22.64578949 0 42.1156451-16.15583763 46.53433574-38.24929079 5.10911105-25.68363931-11.737147-50.67685821-37.4207863-55.64788519-3.0378498-0.55233633-6.07569962-0.8285045-9.11354944-0.82850449z" fill="#4C466D" p-id="1627"></path><path d="M643.072 547.76377732m-27.61681645 0a27.61681646 27.61681646 0 1 0 55.23363291 0 27.61681646 27.61681646 0 1 0-55.23363291 0Z" fill="#D7F7FF" p-id="1628"></path><path d="M643.072 520.14696086c15.18924905 0 27.61681646 12.28948332 27.61681646 27.61681646 0 15.18924905-12.28948332 27.61681646-27.61681646 27.61681646-15.18924905 0-27.61681646-12.28948332-27.61681645-27.61681646 0-15.18924905 12.42756741-27.61681646 27.61681645-27.61681646m0-31.89742301c-32.86401158 0-59.51423947 26.78831197-59.51423947 59.51423947 0 32.86401158 26.78831197 59.51423947 59.51423947 59.51423948s59.51423947-26.78831197 59.51423948-59.51423948c0.13808409-32.86401158-26.65022788-59.51423947-59.51423948-59.51423947z" fill="#4C466D" p-id="1629"></path><path d="M816.3675233 642.35137369m-50.95302637 0a50.95302637 50.95302637 0 1 0 101.90605273 0 50.95302637 50.95302637 0 1 0-101.90605273 0Z" fill="#F7554A" p-id="1630"></path><path d="M816.3675233 591.26026325c28.1691528 0 50.95302637 22.78387358 50.95302636 50.95302637s-22.78387358 50.95302637-50.95302636 50.95302637-50.95302637-22.78387358-50.95302637-50.95302637 22.78387358-50.95302637 50.95302637-50.95302637m0-32.0355071c-45.70583125 0-82.98853347 37.28270222-82.98853347 82.98853347s37.28270222 82.98853347 82.98853347 82.98853346 82.98853347-37.28270222 82.98853346-82.98853346-37.28270222-82.98853347-82.98853346-82.98853347z" fill="#4C466D" p-id="1631"></path><path d="M665.71778949 532.02219194c0.27616816 1.65700898 0.55233633 3.45210207 0.55233634 5.24719512 0 15.18924905-12.28948332 27.61681646-27.61681645 27.61681647-9.3897176 0-17.67476253-4.69485881-22.64578951-11.87523108 2.48551348 12.70373557 13.67032415 22.36962133 27.06448013 22.36962133 15.18924905 0 27.61681646-12.28948332 27.61681646-27.61681646 0-5.79953147-1.79509307-11.18481067-4.97102697-15.74158538z" fill="#C1E6EA" p-id="1632"></path><path d="M476.81876491 440.88669762c0 1.10467265 0 2.20934532-0.27616816 3.45210205-1.65700898 8.42312903-9.80396985 13.80840823-18.08901479 12.15139924-4.83294288-0.96658859-8.69929718-4.14252247-10.77055841-8.28504494 0.13808409 7.04228819 5.24719513 13.2560719 12.4275674 14.63691273 8.42312903 1.65700898 16.43200579-3.72827022 18.08901478-12.15139923 0.69042042-3.45210207 0.13808409-6.76612003-1.38084082-9.80396985z" fill="#C1E6EA" p-id="1633"></path><path d="M453.482555 618.60091154c0.27616816 3.86635431 0.27616816 7.87079269-0.55233633 12.01331516-4.69485881 23.88854624-27.89298463 39.49204754-51.91961496 34.79718873-12.97990373-2.62359757-23.33620992-10.63247434-29.54999361-21.40303275 1.51892491 19.33177153 15.46541722 36.03994548 35.34952508 39.90629979 23.88854624 4.69485881 47.22475615-10.90864251 51.91961495-34.79718874 2.07126124-10.90864251-0.13808409-21.67920092-5.24719513-30.51658219z" fill="#C1E6EA" p-id="1634"></path><path d="M208.79756116 835.53100483c-68.07545259 0-121.51399243-10.08013802-152.72099503-30.51658217-19.33177153-12.70373557-30.5165822-29.13574137-33.00209568-48.74368106-9.25163351-70.83713422 37.28270222-123.72333775 165.70089877-188.76094051 7.87079269-4.00443838 17.53667845-0.8285045 21.54111685 7.04228819 4.00443838 7.87079269 0.8285045 17.53667845-7.0422882 21.54111685-131.45604637 66.41844358-154.37800401 110.46726585-148.44038848 156.035013 1.38084082 10.08013802 7.45654045 18.64135111 18.7794352 26.09789155 65.45185502 42.9441496 266.0880266 29.82616178 477.21858844-31.20700259 274.6492397-79.26026325 429.57958005-196.90790137 420.88028285-264.84526987-5.5233633-42.1156451-75.25582486-62.55208928-191.24645398-56.33830558-8.69929718 0.55233633-16.29392172-6.2137837-16.84625805-15.05116497-0.41425225-8.83738127 6.2137837-16.43200579 15.05116498-16.84625804 175.5048686-9.52780169 219.00135453 40.45863612 224.6628019 84.09320612 12.56565149 97.34927803-169.84342124 220.52027943-443.66415645 299.64245862-131.8702986 38.24929081-255.73172043 57.85723049-350.87165312 57.85723046z" fill="#4C466D" p-id="1635"></path><path d="M100.12538839 518.07569962c-0.13808409 18.7794352-26.51214381 106.60091154-62.13783704 106.46282746 35.62569324 0.27616816 60.8950803 82.7123653 60.61891213 107.29133194 0.13808409-24.57896666 29.27382545-106.60091154 62.13783703-106.46282745-32.86401158-0.27616816-60.75699621-85.47404695-60.61891212-107.29133195z" fill="#FFFFFF" p-id="1636"></path><path d="M98.74454755 747.7095285c-0.13808409 0-0.13808409 0 0 0-8.97546534 0-16.01775355-7.18037229-16.01775353-16.01775355v-0.13808409c0.13808409-24.30279849-25.13130297-90.99741024-44.73924267-91.13549433-8.83738127 0-15.87966947-7.18037229-15.87966947-16.01775353v-0.13808409c0-8.83738127 7.18037229-15.87966947 16.01775354-15.87966946h0.13808408c6.48995186 0 18.08901478-11.32289475 29.68807771-36.7303659 10.49439025-23.06004175 16.29392172-47.63900839 16.2939217-53.85279208 0-8.83738127 7.18037229-15.87966947 16.01775355-15.87966949h0.13808408c8.83738127 0 15.87966947 7.31845635 15.87966948 16.15583764-0.13808409 23.19812583 28.58340503 90.99741024 44.73924266 91.13549431 8.83738127 0 15.87966947 7.18037229 15.87966946 16.01775356v0.13808408c0 8.83738127-7.18037229 15.87966947-16.01775354 15.87966946h-0.13808409c-4.83294288 0-16.43200579 9.25163351-28.85957319 34.93527284-11.18481067 23.06004175-17.12242621 47.08667206-17.26051029 55.64788515 0 8.83738127-7.18037229 15.87966947-15.87966948 15.87966948z m-27.06448013-123.3090855c11.59906291 11.737147 20.85069643 28.58340503 27.75490055 45.56774715 1.10467265-2.62359757 2.3474294-5.24719513 3.59018613-7.87079268 7.7327086-16.01775355 16.15583763-28.58340503 25.131303-37.4207863-11.59906291-12.01331517-21.12686459-29.27382545-28.30723689-46.53433576-0.96658859 2.20934532-1.93317715 4.55677472-2.89976571 6.76612006-7.7327086 17.12242621-16.15583763 30.3784981-25.26938708 39.49204753z" fill="#4C466D" p-id="1637"></path></svg>